<svg xmlns="http://www.w3.org/2000/svg" xmlns:xlink="http://www.w3.org/1999/xlink" width="500" zoomAndPan="magnify" viewBox="0 0 375 374.999991" height="500" preserveAspectRatio="xMidYMid meet" version="1.0"><defs><g/><clipPath id="356a42f5fa"><path d="M 62 210 L 79 210 L 79 230.074219 L 62 230.074219 Z M 62 210 " clip-rule="nonzero"/></clipPath><clipPath id="9651859264"><path d="M 78 210 L 98 210 L 98 230.074219 L 78 230.074219 Z M 78 210 " clip-rule="nonzero"/></clipPath><clipPath id="f75e4e3012"><path d="M 74 164 L 112.5 164 L 112.5 190 L 74 190 Z M 74 164 " clip-rule="nonzero"/></clipPath><clipPath id="fc7179d280"><path d="M 58 158 L 112.5 158 L 112.5 176 L 58 176 Z M 58 158 " clip-rule="nonzero"/></clipPath><clipPath id="ccb38a6aaa"><path d="M 37.5 156 L 53 156 L 53 177 L 37.5 177 Z M 37.5 156 " clip-rule="nonzero"/></clipPath><clipPath id="03d483ef55"><path d="M 37.5 145 L 92 145 L 92 163 L 37.5 163 Z M 37.5 145 " clip-rule="nonzero"/></clipPath><clipPath id="0bae09de61"><path d="M 70 144.574219 L 79 144.574219 L 79 147 L 70 147 Z M 70 144.574219 " clip-rule="nonzero"/></clipPath></defs><g clip-path="url(#356a42f5fa)"><path fill="#002ec4" d="M 62.800781 210.03125 L 62.800781 223.78125 L 78.273438 230.003906 L 78.273438 216.253906 Z M 62.800781 210.03125 " fill-opacity="1" fill-rule="nonzero"/></g><g clip-path="url(#9651859264)"><path fill="#2da6ff" d="M 97.199219 224.015625 L 97.199219 210.714844 L 78.191406 216.335938 L 78.191406 230.085938 Z M 97.199219 224.015625 " fill-opacity="1" fill-rule="nonzero"/></g><path fill="#2da6ff" d="M 62.800781 210.195312 L 81.964844 204.578125 L 97.199219 210.714844 L 78.273438 216.5 Z M 62.800781 210.195312 " fill-opacity="1" fill-rule="nonzero"/><path fill="#002ec4" d="M 75.308594 211.015625 L 75.308594 213.796875 C 76.789062 215.109375 81.890625 215.027344 83.125 213.632812 L 83.125 210.769531 Z M 75.308594 211.015625 " fill-opacity="1" fill-rule="nonzero"/><path fill="#2da6ff" d="M 75.308594 210.8125 C 75.308594 210.292969 77.058594 209.871094 79.21875 209.871094 C 81.375 209.871094 83.125 210.292969 83.125 210.8125 C 83.125 211.332031 81.378906 211.753906 79.21875 211.753906 C 77.058594 211.753906 75.308594 211.332031 75.308594 210.8125 Z M 75.308594 210.8125 " fill-opacity="1" fill-rule="nonzero"/><path fill="#002ec4" d="M 85.058594 208.191406 L 85.058594 210.972656 C 86.542969 212.285156 91.644531 212.203125 92.878906 210.8125 L 92.878906 207.945312 Z M 85.058594 208.191406 " fill-opacity="1" fill-rule="nonzero"/><path fill="#2da6ff" d="M 85.058594 207.988281 C 85.058594 207.46875 86.808594 207.046875 88.96875 207.046875 C 91.128906 207.046875 92.878906 207.46875 92.878906 207.988281 C 92.878906 208.507812 91.128906 208.929688 88.96875 208.929688 C 86.8125 208.929688 85.058594 208.507812 85.058594 207.988281 Z M 85.058594 207.988281 " fill-opacity="1" fill-rule="nonzero"/><path fill="#002ec4" d="M 76.957031 204.796875 L 76.957031 207.578125 C 78.4375 208.886719 83.539062 208.804688 84.773438 207.414062 L 84.773438 204.550781 Z M 76.957031 204.796875 " fill-opacity="1" fill-rule="nonzero"/><path fill="#2da6ff" d="M 76.957031 204.59375 C 76.957031 204.074219 78.707031 203.652344 80.867188 203.652344 C 83.023438 203.652344 84.773438 204.074219 84.773438 204.59375 C 84.773438 205.113281 83.023438 205.535156 80.867188 205.535156 C 78.707031 205.535156 76.957031 205.113281 76.957031 204.59375 Z M 76.957031 204.59375 " fill-opacity="1" fill-rule="nonzero"/><path fill="#002ec4" d="M 67.371094 207.539062 L 67.371094 210.320312 C 68.851562 211.632812 73.953125 211.550781 75.1875 210.15625 L 75.1875 207.292969 Z M 67.371094 207.539062 " fill-opacity="1" fill-rule="nonzero"/><path fill="#2da6ff" d="M 67.371094 207.335938 C 67.371094 206.816406 69.121094 206.394531 71.28125 206.394531 C 73.441406 206.394531 75.1875 206.816406 75.1875 207.335938 C 75.1875 207.855469 73.4375 208.277344 71.28125 208.277344 C 69.121094 208.277344 67.371094 207.855469 67.371094 207.335938 Z M 67.371094 207.335938 " fill-opacity="1" fill-rule="nonzero"/><path fill="#fcd327" d="M 46.992188 186.339844 L 46.992188 200.089844 L 62.464844 206.3125 L 62.464844 192.558594 Z M 46.992188 186.339844 " fill-opacity="1" fill-rule="nonzero"/><path fill="#f5fa40" d="M 100.726562 194.300781 L 100.726562 181.511719 L 62.378906 192.644531 L 62.378906 206.394531 Z M 100.726562 194.300781 " fill-opacity="1" fill-rule="nonzero"/><path fill="#f5fa40" d="M 46.992188 186.503906 L 85.09375 174.960938 L 100.644531 181.511719 L 62.464844 192.808594 Z M 46.992188 186.503906 " fill-opacity="1" fill-rule="nonzero"/><path fill="#e9b018" d="M 59.5 187.324219 L 59.5 190.105469 C 60.980469 191.417969 66.082031 191.335938 67.316406 189.945312 L 67.316406 187.078125 Z M 59.5 187.324219 " fill-opacity="1" fill-rule="nonzero"/><path fill="#f5fa40" d="M 59.5 187.121094 C 59.5 186.601562 61.25 186.179688 63.410156 186.179688 C 65.566406 186.179688 67.316406 186.601562 67.316406 187.121094 C 67.316406 187.640625 65.566406 188.0625 63.410156 188.0625 C 61.25 188.0625 59.5 187.640625 59.5 187.121094 Z M 59.5 187.121094 " fill-opacity="1" fill-rule="nonzero"/><path fill="#e9b018" d="M 69.25 184.5 L 69.25 187.285156 C 70.730469 188.59375 75.832031 188.511719 77.066406 187.121094 L 77.066406 184.253906 Z M 69.25 184.5 " fill-opacity="1" fill-rule="nonzero"/><path fill="#f5fa40" d="M 69.25 184.296875 C 69.25 183.777344 71 183.355469 73.160156 183.355469 C 75.316406 183.355469 77.066406 183.777344 77.066406 184.296875 C 77.066406 184.816406 75.316406 185.238281 73.160156 185.238281 C 71 185.238281 69.25 184.816406 69.25 184.296875 Z M 69.25 184.296875 " fill-opacity="1" fill-rule="nonzero"/><path fill="#e9b018" d="M 78.753906 181.675781 L 78.753906 184.460938 C 80.234375 185.769531 85.335938 185.6875 86.570312 184.296875 L 86.570312 181.429688 Z M 78.753906 181.675781 " fill-opacity="1" fill-rule="nonzero"/><path fill="#f5fa40" d="M 78.753906 181.472656 C 78.753906 180.953125 80.503906 180.53125 82.664062 180.53125 C 84.824219 180.53125 86.570312 180.953125 86.570312 181.472656 C 86.570312 181.992188 84.820312 182.414062 82.664062 182.414062 C 80.503906 182.414062 78.753906 181.992188 78.753906 181.472656 Z M 78.753906 181.472656 " fill-opacity="1" fill-rule="nonzero"/><path fill="#e9b018" d="M 87.929688 178.933594 L 87.929688 181.71875 C 89.410156 183.027344 94.511719 182.945312 95.746094 181.554688 L 95.746094 178.6875 Z M 87.929688 178.933594 " fill-opacity="1" fill-rule="nonzero"/><path fill="#f5fa40" d="M 87.929688 178.730469 C 87.929688 178.210938 89.679688 177.789062 91.839844 177.789062 C 93.996094 177.789062 95.746094 178.210938 95.746094 178.730469 C 95.746094 179.25 93.996094 179.671875 91.839844 179.671875 C 89.679688 179.671875 87.929688 179.25 87.929688 178.730469 Z M 87.929688 178.730469 " fill-opacity="1" fill-rule="nonzero"/><path fill="#e9b018" d="M 80.320312 175.621094 L 80.320312 178.402344 C 81.800781 179.714844 86.902344 179.632812 88.136719 178.238281 L 88.136719 175.375 Z M 80.320312 175.621094 " fill-opacity="1" fill-rule="nonzero"/><path fill="#f5fa40" d="M 80.320312 175.417969 C 80.320312 174.894531 82.070312 174.476562 84.226562 174.476562 C 86.386719 174.476562 88.136719 174.894531 88.136719 175.417969 C 88.136719 175.9375 86.386719 176.359375 84.226562 176.359375 C 82.070312 176.359375 80.320312 175.9375 80.320312 175.417969 Z M 80.320312 175.417969 " fill-opacity="1" fill-rule="nonzero"/><path fill="#e9b018" d="M 70.734375 178.363281 L 70.734375 181.144531 C 72.214844 182.457031 77.316406 182.375 78.550781 180.984375 L 78.550781 178.117188 Z M 70.734375 178.363281 " fill-opacity="1" fill-rule="nonzero"/><path fill="#f5fa40" d="M 70.734375 178.160156 C 70.734375 177.640625 72.484375 177.21875 74.640625 177.21875 C 76.800781 177.21875 78.550781 177.640625 78.550781 178.160156 C 78.550781 178.679688 76.800781 179.101562 74.640625 179.101562 C 72.484375 179.101562 70.734375 178.679688 70.734375 178.160156 Z M 70.734375 178.160156 " fill-opacity="1" fill-rule="nonzero"/><path fill="#e9b018" d="M 61.148438 181.105469 L 61.148438 183.886719 C 62.628906 185.199219 67.730469 185.117188 68.964844 183.722656 L 68.964844 180.859375 Z M 61.148438 181.105469 " fill-opacity="1" fill-rule="nonzero"/><path fill="#f5fa40" d="M 61.148438 180.902344 C 61.148438 180.382812 62.898438 179.960938 65.054688 179.960938 C 67.214844 179.960938 68.964844 180.382812 68.964844 180.902344 C 68.964844 181.421875 67.214844 181.84375 65.054688 181.84375 C 62.898438 181.84375 61.148438 181.421875 61.148438 180.902344 Z M 61.148438 180.902344 " fill-opacity="1" fill-rule="nonzero"/><path fill="#e9b018" d="M 51.5625 183.847656 L 51.5625 186.628906 C 53.042969 187.9375 58.144531 187.855469 59.378906 186.464844 L 59.378906 183.601562 Z M 51.5625 183.847656 " fill-opacity="1" fill-rule="nonzero"/><path fill="#f5fa40" d="M 51.5625 183.644531 C 51.5625 183.125 53.3125 182.703125 55.46875 182.703125 C 57.628906 182.703125 59.378906 183.125 59.378906 183.644531 C 59.378906 184.164062 57.628906 184.585938 55.46875 184.585938 C 53.3125 184.585938 51.5625 184.164062 51.5625 183.644531 Z M 51.5625 183.644531 " fill-opacity="1" fill-rule="nonzero"/><path fill="#c00104" d="M 58.75 169.539062 L 58.75 183.289062 L 74.222656 189.511719 L 74.222656 175.761719 Z M 58.75 169.539062 " fill-opacity="1" fill-rule="nonzero"/><g clip-path="url(#f75e4e3012)"><path fill="#ff212c" d="M 112.488281 177.496094 L 112.488281 164.707031 L 74.140625 175.839844 L 74.140625 189.589844 Z M 112.488281 177.496094 " fill-opacity="1" fill-rule="nonzero"/></g><g clip-path="url(#fc7179d280)"><path fill="#ff212c" d="M 58.75 169.699219 L 96.851562 158.15625 L 112.40625 164.707031 L 74.222656 176 Z M 58.75 169.699219 " fill-opacity="1" fill-rule="nonzero"/></g><path fill="#c00104" d="M 71.257812 170.519531 L 71.257812 173.300781 C 72.738281 174.613281 77.839844 174.53125 79.078125 173.136719 L 79.078125 170.273438 Z M 71.257812 170.519531 " fill-opacity="1" fill-rule="nonzero"/><path fill="#ff212c" d="M 71.257812 170.316406 C 71.257812 169.796875 73.007812 169.375 75.167969 169.375 C 77.324219 169.375 79.078125 169.796875 79.078125 170.316406 C 79.078125 170.835938 77.328125 171.257812 75.167969 171.257812 C 73.007812 171.257812 71.257812 170.835938 71.257812 170.316406 Z M 71.257812 170.316406 " fill-opacity="1" fill-rule="nonzero"/><path fill="#c00104" d="M 81.011719 167.695312 L 81.011719 170.476562 C 82.492188 171.789062 87.59375 171.707031 88.828125 170.316406 L 88.828125 167.449219 Z M 81.011719 167.695312 " fill-opacity="1" fill-rule="nonzero"/><path fill="#ff212c" d="M 81.011719 167.492188 C 81.011719 166.972656 82.757812 166.550781 84.917969 166.550781 C 87.078125 166.550781 88.828125 166.972656 88.828125 167.492188 C 88.828125 168.011719 87.078125 168.433594 84.917969 168.433594 C 82.761719 168.433594 81.011719 168.011719 81.011719 167.492188 Z M 81.011719 167.492188 " fill-opacity="1" fill-rule="nonzero"/><path fill="#c00104" d="M 90.515625 164.871094 L 90.515625 167.65625 C 91.996094 168.964844 97.097656 168.882812 98.332031 167.492188 L 98.332031 164.625 Z M 90.515625 164.871094 " fill-opacity="1" fill-rule="nonzero"/><path fill="#ff212c" d="M 90.515625 164.667969 C 90.515625 164.148438 92.265625 163.726562 94.421875 163.726562 C 96.582031 163.726562 98.332031 164.148438 98.332031 164.667969 C 98.332031 165.1875 96.582031 165.609375 94.421875 165.609375 C 92.265625 165.609375 90.515625 165.1875 90.515625 164.667969 Z M 90.515625 164.667969 " fill-opacity="1" fill-rule="nonzero"/><path fill="#c00104" d="M 99.691406 162.128906 L 99.691406 164.914062 C 101.171875 166.222656 106.273438 166.140625 107.507812 164.75 L 107.507812 161.882812 Z M 99.691406 162.128906 " fill-opacity="1" fill-rule="nonzero"/><path fill="#ff212c" d="M 99.691406 161.925781 C 99.691406 161.40625 101.4375 160.984375 103.597656 160.984375 C 105.757812 160.984375 107.507812 161.40625 107.507812 161.925781 C 107.507812 162.445312 105.757812 162.867188 103.597656 162.867188 C 101.441406 162.867188 99.691406 162.445312 99.691406 161.925781 Z M 99.691406 161.925781 " fill-opacity="1" fill-rule="nonzero"/><path fill="#c00104" d="M 92.078125 158.816406 L 92.078125 161.597656 C 93.558594 162.910156 98.660156 162.828125 99.894531 161.433594 L 99.894531 158.570312 Z M 92.078125 158.816406 " fill-opacity="1" fill-rule="nonzero"/><path fill="#ff212c" d="M 92.078125 158.609375 C 92.078125 158.089844 93.828125 157.667969 95.988281 157.667969 C 98.144531 157.667969 99.894531 158.089844 99.894531 158.609375 C 99.894531 159.128906 98.144531 159.550781 95.988281 159.550781 C 93.828125 159.550781 92.078125 159.132812 92.078125 158.609375 Z M 92.078125 158.609375 " fill-opacity="1" fill-rule="nonzero"/><path fill="#c00104" d="M 82.492188 161.558594 L 82.492188 164.339844 C 83.972656 165.648438 89.074219 165.570312 90.308594 164.175781 L 90.308594 161.3125 Z M 82.492188 161.558594 " fill-opacity="1" fill-rule="nonzero"/><path fill="#ff212c" d="M 82.492188 161.355469 C 82.492188 160.835938 84.242188 160.414062 86.402344 160.414062 C 88.558594 160.414062 90.308594 160.835938 90.308594 161.355469 C 90.308594 161.875 88.558594 162.292969 86.402344 162.292969 C 84.242188 162.292969 82.492188 161.875 82.492188 161.355469 Z M 82.492188 161.355469 " fill-opacity="1" fill-rule="nonzero"/><path fill="#c00104" d="M 72.90625 164.300781 L 72.90625 167.082031 C 74.386719 168.394531 79.488281 168.3125 80.722656 166.917969 L 80.722656 164.054688 Z M 72.90625 164.300781 " fill-opacity="1" fill-rule="nonzero"/><path fill="#ff212c" d="M 72.90625 164.097656 C 72.90625 163.578125 74.65625 163.15625 76.816406 163.15625 C 78.972656 163.15625 80.722656 163.578125 80.722656 164.097656 C 80.722656 164.617188 78.972656 165.039062 76.816406 165.039062 C 74.65625 165.039062 72.90625 164.617188 72.90625 164.097656 Z M 72.90625 164.097656 " fill-opacity="1" fill-rule="nonzero"/><path fill="#c00104" d="M 63.324219 167.039062 L 63.324219 169.824219 C 64.804688 171.132812 69.90625 171.050781 71.140625 169.660156 L 71.140625 166.796875 Z M 63.324219 167.039062 " fill-opacity="1" fill-rule="nonzero"/><path fill="#ff212c" d="M 63.320312 166.839844 C 63.320312 166.320312 65.070312 165.898438 67.230469 165.898438 C 69.386719 165.898438 71.136719 166.320312 71.136719 166.839844 C 71.136719 167.359375 69.386719 167.78125 67.230469 167.78125 C 65.070312 167.78125 63.320312 167.359375 63.320312 166.839844 Z M 63.320312 166.839844 " fill-opacity="1" fill-rule="nonzero"/><g clip-path="url(#ccb38a6aaa)"><path fill="#002ec4" d="M 37.511719 156.449219 L 37.511719 170.199219 L 52.984375 176.421875 L 52.984375 162.671875 Z M 37.511719 156.449219 " fill-opacity="1" fill-rule="nonzero"/></g><path fill="#2da6ff" d="M 91.246094 164.40625 L 91.246094 151.617188 L 52.898438 162.75 L 52.898438 176.5 Z M 91.246094 164.40625 " fill-opacity="1" fill-rule="nonzero"/><g clip-path="url(#03d483ef55)"><path fill="#2da6ff" d="M 37.511719 156.613281 L 75.613281 145.074219 L 91.164062 151.621094 L 52.984375 162.917969 Z M 37.511719 156.613281 " fill-opacity="1" fill-rule="nonzero"/></g><path fill="#002ec4" d="M 50.023438 157.429688 L 50.023438 160.214844 C 51.503906 161.523438 56.605469 161.441406 57.839844 160.050781 L 57.839844 157.183594 Z M 50.023438 157.429688 " fill-opacity="1" fill-rule="nonzero"/><path fill="#2da6ff" d="M 50.023438 157.226562 C 50.023438 156.707031 51.773438 156.285156 53.933594 156.285156 C 56.089844 156.285156 57.839844 156.707031 57.839844 157.226562 C 57.839844 157.746094 56.089844 158.167969 53.933594 158.167969 C 51.773438 158.167969 50.023438 157.746094 50.023438 157.226562 Z M 50.023438 157.226562 " fill-opacity="1" fill-rule="nonzero"/><path fill="#002ec4" d="M 59.773438 154.605469 L 59.773438 157.390625 C 61.253906 158.699219 66.355469 158.617188 67.589844 157.226562 L 67.589844 154.363281 Z M 59.773438 154.605469 " fill-opacity="1" fill-rule="nonzero"/><path fill="#2da6ff" d="M 59.773438 154.402344 C 59.773438 153.882812 61.523438 153.460938 63.683594 153.460938 C 65.839844 153.460938 67.589844 153.882812 67.589844 154.402344 C 67.589844 154.921875 65.839844 155.34375 63.683594 155.34375 C 61.523438 155.34375 59.773438 154.921875 59.773438 154.402344 Z M 59.773438 154.402344 " fill-opacity="1" fill-rule="nonzero"/><path fill="#002ec4" d="M 69.277344 151.78125 L 69.277344 154.566406 C 70.761719 155.875 75.859375 155.792969 77.09375 154.402344 L 77.09375 151.539062 Z M 69.277344 151.78125 " fill-opacity="1" fill-rule="nonzero"/><path fill="#2da6ff" d="M 69.277344 151.578125 C 69.277344 151.058594 71.027344 150.636719 73.1875 150.636719 C 75.34375 150.636719 77.09375 151.058594 77.09375 151.578125 C 77.09375 152.097656 75.34375 152.519531 73.1875 152.519531 C 71.027344 152.519531 69.277344 152.097656 69.277344 151.578125 Z M 69.277344 151.578125 " fill-opacity="1" fill-rule="nonzero"/><path fill="#002ec4" d="M 78.453125 149.042969 L 78.453125 151.824219 C 79.933594 153.132812 85.035156 153.050781 86.269531 151.660156 L 86.269531 148.796875 Z M 78.453125 149.042969 " fill-opacity="1" fill-rule="nonzero"/><path fill="#2da6ff" d="M 78.453125 148.835938 C 78.453125 148.316406 80.203125 147.894531 82.363281 147.894531 C 84.519531 147.894531 86.269531 148.316406 86.269531 148.835938 C 86.269531 149.355469 84.519531 149.777344 82.363281 149.777344 C 80.203125 149.777344 78.453125 149.355469 78.453125 148.835938 Z M 78.453125 148.835938 " fill-opacity="1" fill-rule="nonzero"/><path fill="#002ec4" d="M 70.84375 145.726562 L 70.84375 148.507812 C 72.324219 149.820312 77.425781 149.738281 78.660156 148.34375 L 78.660156 145.480469 Z M 70.84375 145.726562 " fill-opacity="1" fill-rule="nonzero"/><g clip-path="url(#0bae09de61)"><path fill="#2da6ff" d="M 70.84375 145.523438 C 70.84375 145.003906 72.59375 144.582031 74.75 144.582031 C 76.910156 144.582031 78.660156 145.003906 78.660156 145.523438 C 78.660156 146.042969 76.910156 146.464844 74.75 146.464844 C 72.59375 146.464844 70.84375 146.042969 70.84375 145.523438 Z M 70.84375 145.523438 " fill-opacity="1" fill-rule="nonzero"/></g><path fill="#002ec4" d="M 61.257812 148.46875 L 61.257812 151.253906 C 62.738281 152.5625 67.839844 152.480469 69.074219 151.089844 L 69.074219 148.222656 Z M 61.257812 148.46875 " fill-opacity="1" fill-rule="nonzero"/><path fill="#2da6ff" d="M 61.257812 148.265625 C 61.257812 147.746094 63.007812 147.324219 65.164062 147.324219 C 67.324219 147.324219 69.074219 147.746094 69.074219 148.265625 C 69.074219 148.785156 67.324219 149.207031 65.164062 149.207031 C 63.007812 149.207031 61.257812 148.785156 61.257812 148.265625 Z M 61.257812 148.265625 " fill-opacity="1" fill-rule="nonzero"/><path fill="#002ec4" d="M 51.667969 151.214844 L 51.667969 153.996094 C 53.148438 155.304688 58.25 155.222656 59.484375 153.832031 L 59.484375 150.96875 Z M 51.667969 151.214844 " fill-opacity="1" fill-rule="nonzero"/><path fill="#2da6ff" d="M 51.671875 151.007812 C 51.671875 150.488281 53.421875 150.066406 55.578125 150.066406 C 57.738281 150.066406 59.488281 150.488281 59.488281 151.007812 C 59.488281 151.527344 57.738281 151.949219 55.578125 151.949219 C 53.421875 151.949219 51.671875 151.527344 51.671875 151.007812 Z M 51.671875 151.007812 " fill-opacity="1" fill-rule="nonzero"/><path fill="#002ec4" d="M 42.085938 153.953125 L 42.085938 156.738281 C 43.566406 158.046875 48.667969 157.964844 49.902344 156.574219 L 49.902344 153.707031 Z M 42.085938 153.953125 " fill-opacity="1" fill-rule="nonzero"/><path fill="#2da6ff" d="M 42.085938 153.75 C 42.085938 153.230469 43.835938 152.808594 45.992188 152.808594 C 48.152344 152.808594 49.902344 153.230469 49.902344 153.75 C 49.902344 154.269531 48.152344 154.691406 45.992188 154.691406 C 43.835938 154.691406 42.085938 154.269531 42.085938 153.75 Z M 42.085938 153.75 " fill-opacity="1" fill-rule="nonzero"/><g fill="#ffffff" fill-opacity="1"><g transform="translate(118.330859, 201.476952)"><g><path d="M 14.0625 -29.460938 L 3.589844 -29.460938 L 3.589844 0 L 14.0625 0 C 23.621094 0 28.417969 -7.261719 28.417969 -14.5625 C 28.417969 -21.867188 23.621094 -29.460938 14.0625 -29.460938 Z M 14.0625 -4.214844 L 7.804688 -4.214844 L 7.804688 -25.246094 L 14.0625 -25.246094 C 20.824219 -25.246094 24.246094 -19.738281 24.246094 -14.5625 C 24.246094 -9.390625 20.824219 -4.214844 14.0625 -4.214844 Z M 14.0625 -4.214844 "/></g></g></g><g fill="#ffffff" fill-opacity="1"><g transform="translate(148.167215, 201.476952)"><g><path d="M 14.273438 -29.210938 L 3.589844 -29.210938 L 3.589844 0 L 7.84375 0 L 7.84375 -9.722656 L 14.273438 -9.722656 C 20.574219 -9.722656 23.746094 -14.5625 23.746094 -19.445312 C 23.746094 -24.328125 20.574219 -29.210938 14.273438 -29.210938 Z M 14.273438 -13.894531 L 7.84375 -13.894531 L 7.84375 -24.953125 L 14.273438 -24.953125 C 17.820312 -24.953125 19.570312 -22.199219 19.570312 -19.40625 C 19.570312 -16.648438 17.820312 -13.894531 14.273438 -13.894531 Z M 14.273438 -13.894531 "/></g></g></g><g fill="#ffffff" fill-opacity="1"><g transform="translate(172.537042, 201.476952)"><g><path d="M 7.21875 -7.386719 L 19.070312 -7.386719 L 21.867188 0 L 26.375 0 L 14.648438 -29.585938 L 11.558594 -29.585938 L -0.167969 0 L 4.382812 0 Z M 17.527344 -11.351562 L 8.761719 -11.351562 L 13.144531 -22.867188 Z M 17.527344 -11.351562 "/></g></g></g><g fill="#ffffff" fill-opacity="1"><g transform="translate(198.576029, 201.476952)"><g><path d="M 9.097656 -25.496094 L 9.097656 0 L 13.3125 0 L 13.3125 -25.496094 L 22.117188 -25.496094 L 22.117188 -29.503906 L 0.25 -29.503906 L 0.25 -25.496094 Z M 9.097656 -25.496094 "/></g></g></g><g fill="#ffffff" fill-opacity="1"><g transform="translate(220.567289, 201.476952)"><g><path d="M 9.097656 -25.496094 L 9.097656 0 L 13.3125 0 L 13.3125 -25.496094 L 22.117188 -25.496094 L 22.117188 -29.503906 L 0.25 -29.503906 L 0.25 -25.496094 Z M 9.097656 -25.496094 "/></g></g></g><g fill="#ffffff" fill-opacity="1"><g transform="translate(242.558549, 201.476952)"><g><path d="M 21.40625 -4.214844 L 7.84375 -4.214844 L 7.84375 -12.8125 L 21.074219 -12.8125 L 21.074219 -17.066406 L 7.84375 -17.066406 L 7.84375 -25.289062 L 21.367188 -25.289062 L 21.367188 -29.503906 L 3.589844 -29.503906 L 3.589844 0 L 21.40625 0 Z M 21.40625 -4.214844 "/></g></g></g><g fill="#ffffff" fill-opacity="1"><g transform="translate(265.426113, 201.476952)"><g><path d="M 14.230469 -14.8125 L 9.304688 -14.8125 L 9.304688 -12.8125 L 19.945312 0 L 25.414062 0 L 16.191406 -10.976562 C 21.199219 -11.851562 23.746094 -15.773438 23.746094 -19.90625 C 23.746094 -24.539062 20.574219 -29.585938 14.230469 -29.585938 L 3.589844 -29.585938 L 3.589844 0 L 7.761719 0 L 7.761719 -25.332031 L 14.230469 -25.332031 C 17.777344 -25.332031 19.53125 -22.410156 19.53125 -19.90625 C 19.53125 -17.359375 17.777344 -14.8125 14.230469 -14.8125 Z M 14.230469 -14.8125 "/></g></g></g><g fill="#ffffff" fill-opacity="1"><g transform="translate(289.87939, 201.476952)"><g><path d="M 3.589844 -29.210938 L 3.589844 0 L 7.804688 0 L 7.804688 -20.40625 L 21.910156 0 L 25.246094 0 L 25.246094 -29.210938 L 21.074219 -29.210938 L 21.074219 -8.636719 L 6.84375 -29.210938 Z M 3.589844 -29.210938 "/></g></g></g><g fill="#eeeeee" fill-opacity="1"><g transform="translate(143.849162, 213.682414)"><g><path d="M 6 -6.390625 L 3.1875 0.296875 L 0.359375 -6.390625 L 1.375 -6.390625 L 3.21875 -1.78125 L 5 -6.390625 Z M 6 -6.390625 "/></g></g></g><g fill="#eeeeee" fill-opacity="1"><g transform="translate(150.88827, 213.682414)"><g><path d="M 1.78125 -6.390625 L 1.78125 0 L 0.921875 0 L 0.921875 -6.390625 Z M 1.78125 -6.390625 "/></g></g></g><g fill="#eeeeee" fill-opacity="1"><g transform="translate(154.266473, 213.682414)"><g><path d="M 4.234375 -5.25 C 3.992188 -5.375 3.742188 -5.472656 3.484375 -5.546875 C 3.234375 -5.628906 2.992188 -5.671875 2.765625 -5.671875 C 2.410156 -5.671875 2.128906 -5.59375 1.921875 -5.4375 C 1.722656 -5.28125 1.625 -5.066406 1.625 -4.796875 C 1.625 -4.523438 1.742188 -4.304688 1.984375 -4.140625 C 2.222656 -3.972656 2.5625 -3.804688 3 -3.640625 C 3.332031 -3.523438 3.613281 -3.394531 3.84375 -3.25 C 4.070312 -3.113281 4.257812 -2.921875 4.40625 -2.671875 C 4.5625 -2.429688 4.640625 -2.125 4.640625 -1.75 C 4.640625 -1.40625 4.550781 -1.09375 4.375 -0.8125 C 4.207031 -0.539062 3.960938 -0.320312 3.640625 -0.15625 C 3.328125 0 2.957031 0.078125 2.53125 0.078125 C 2.144531 0.078125 1.765625 0.015625 1.390625 -0.109375 C 1.023438 -0.242188 0.707031 -0.40625 0.4375 -0.59375 L 0.8125 -1.28125 C 1.03125 -1.113281 1.289062 -0.972656 1.59375 -0.859375 C 1.90625 -0.742188 2.191406 -0.6875 2.453125 -0.6875 C 2.796875 -0.6875 3.09375 -0.773438 3.34375 -0.953125 C 3.601562 -1.128906 3.734375 -1.394531 3.734375 -1.75 C 3.734375 -2.039062 3.625 -2.269531 3.40625 -2.4375 C 3.195312 -2.613281 2.898438 -2.78125 2.515625 -2.9375 C 2.148438 -3.070312 1.847656 -3.203125 1.609375 -3.328125 C 1.367188 -3.460938 1.164062 -3.640625 1 -3.859375 C 0.832031 -4.085938 0.75 -4.375 0.75 -4.71875 C 0.75 -5.21875 0.921875 -5.625 1.265625 -5.9375 C 1.617188 -6.25 2.078125 -6.410156 2.640625 -6.421875 C 3.328125 -6.421875 3.960938 -6.253906 4.546875 -5.921875 Z M 4.234375 -5.25 "/></g></g></g><g fill="#eeeeee" fill-opacity="1"><g transform="translate(160.094123, 213.682414)"><g><path d="M 1.703125 -2.265625 C 1.703125 -1.984375 1.769531 -1.726562 1.90625 -1.5 C 2.039062 -1.269531 2.222656 -1.085938 2.453125 -0.953125 C 2.679688 -0.828125 2.941406 -0.765625 3.234375 -0.765625 C 3.523438 -0.765625 3.789062 -0.828125 4.03125 -0.953125 C 4.269531 -1.085938 4.457031 -1.269531 4.59375 -1.5 C 4.726562 -1.726562 4.796875 -1.984375 4.796875 -2.265625 L 4.796875 -6.390625 L 5.640625 -6.390625 L 5.640625 -2.234375 C 5.640625 -1.785156 5.53125 -1.382812 5.3125 -1.03125 C 5.101562 -0.675781 4.816406 -0.398438 4.453125 -0.203125 C 4.085938 -0.015625 3.679688 0.078125 3.234375 0.078125 C 2.785156 0.078125 2.378906 -0.015625 2.015625 -0.203125 C 1.648438 -0.398438 1.363281 -0.675781 1.15625 -1.03125 C 0.945312 -1.382812 0.84375 -1.785156 0.84375 -2.234375 L 0.84375 -6.390625 L 1.703125 -6.390625 Z M 1.703125 -2.265625 "/></g></g></g><g fill="#eeeeee" fill-opacity="1"><g transform="translate(167.248186, 213.682414)"><g><path d="M 4.265625 -1.6875 L 1.8125 -1.6875 L 1.125 0 L 0.28125 0 L 3.078125 -6.65625 L 3.125 -6.65625 L 5.921875 0 L 4.9375 0 Z M 3.984375 -2.421875 L 3.0625 -4.765625 L 2.125 -2.421875 Z M 3.984375 -2.421875 "/></g></g></g><g fill="#eeeeee" fill-opacity="1"><g transform="translate(174.128129, 213.682414)"><g><path d="M 1.78125 -6.390625 L 1.78125 -0.828125 L 5.03125 -0.828125 L 5.03125 0 L 0.921875 0 L 0.921875 -6.390625 Z M 1.78125 -6.390625 "/></g></g></g><g fill="#eeeeee" fill-opacity="1"><g transform="translate(180.309493, 213.682414)"><g><path d="M 1.78125 -6.390625 L 1.78125 0 L 0.921875 0 L 0.921875 -6.390625 Z M 1.78125 -6.390625 "/></g></g></g><g fill="#eeeeee" fill-opacity="1"><g transform="translate(183.687697, 213.682414)"><g><path d="M 5.8125 -0.828125 L 5.8125 0 L 0.453125 0 L 1.953125 -2.234375 C 3.160156 -4.035156 3.910156 -5.148438 4.203125 -5.578125 L 1.53125 -5.578125 C 1.34375 -5.578125 1.175781 -5.625 1.03125 -5.71875 C 0.882812 -5.8125 0.8125 -5.941406 0.8125 -6.109375 L 0.8125 -6.71875 L 1.609375 -6.71875 L 1.609375 -6.59375 C 1.609375 -6.5 1.625 -6.441406 1.65625 -6.421875 C 1.695312 -6.398438 1.773438 -6.390625 1.890625 -6.390625 L 5.71875 -6.390625 L 1.921875 -0.828125 Z M 5.8125 -0.828125 "/></g></g></g><g fill="#eeeeee" fill-opacity="1"><g transform="translate(190.673744, 213.682414)"><g><path d="M 5.078125 -6.390625 L 5.078125 -5.578125 L 1.78125 -5.578125 L 1.78125 -3.625 L 4.71875 -3.625 L 4.71875 -2.796875 L 1.78125 -2.796875 L 1.78125 -0.828125 L 5.203125 -0.828125 L 5.203125 0 L 0.921875 0 L 0.921875 -6.390625 Z M 5.078125 -6.390625 "/></g></g></g><g fill="#eeeeee" fill-opacity="1"><g transform="translate(197.129229, 213.682414)"><g/></g></g><g fill="#eeeeee" fill-opacity="1"><g transform="translate(200.604702, 213.682414)"><g><path d="M 0.921875 -6.390625 L 2.671875 -6.390625 C 3.460938 -6.390625 4.117188 -6.234375 4.640625 -5.921875 C 5.171875 -5.609375 5.550781 -5.203125 5.78125 -4.703125 C 6.019531 -4.203125 6.140625 -3.675781 6.140625 -3.125 C 6.140625 -2.5 5.992188 -1.945312 5.703125 -1.46875 C 5.421875 -1 5.035156 -0.632812 4.546875 -0.375 C 4.066406 -0.125 3.546875 0 2.984375 0 L 0.921875 0 Z M 2.8125 -0.828125 C 3.28125 -0.828125 3.703125 -0.921875 4.078125 -1.109375 C 4.453125 -1.296875 4.742188 -1.566406 4.953125 -1.921875 C 5.160156 -2.273438 5.265625 -2.695312 5.265625 -3.1875 C 5.265625 -3.6875 5.15625 -4.113281 4.9375 -4.46875 C 4.71875 -4.832031 4.425781 -5.109375 4.0625 -5.296875 C 3.695312 -5.484375 3.304688 -5.578125 2.890625 -5.578125 L 1.78125 -5.578125 L 1.78125 -0.828125 Z M 2.8125 -0.828125 "/></g></g></g><g fill="#eeeeee" fill-opacity="1"><g transform="translate(207.953302, 213.682414)"><g><path d="M 5.078125 -6.390625 L 5.078125 -5.578125 L 1.78125 -5.578125 L 1.78125 -3.625 L 4.71875 -3.625 L 4.71875 -2.796875 L 1.78125 -2.796875 L 1.78125 -0.828125 L 5.203125 -0.828125 L 5.203125 0 L 0.921875 0 L 0.921875 -6.390625 Z M 5.078125 -6.390625 "/></g></g></g><g fill="#eeeeee" fill-opacity="1"><g transform="translate(214.408787, 213.682414)"><g><path d="M 4.234375 -5.25 C 3.992188 -5.375 3.742188 -5.472656 3.484375 -5.546875 C 3.234375 -5.628906 2.992188 -5.671875 2.765625 -5.671875 C 2.410156 -5.671875 2.128906 -5.59375 1.921875 -5.4375 C 1.722656 -5.28125 1.625 -5.066406 1.625 -4.796875 C 1.625 -4.523438 1.742188 -4.304688 1.984375 -4.140625 C 2.222656 -3.972656 2.5625 -3.804688 3 -3.640625 C 3.332031 -3.523438 3.613281 -3.394531 3.84375 -3.25 C 4.070312 -3.113281 4.257812 -2.921875 4.40625 -2.671875 C 4.5625 -2.429688 4.640625 -2.125 4.640625 -1.75 C 4.640625 -1.40625 4.550781 -1.09375 4.375 -0.8125 C 4.207031 -0.539062 3.960938 -0.320312 3.640625 -0.15625 C 3.328125 0 2.957031 0.078125 2.53125 0.078125 C 2.144531 0.078125 1.765625 0.015625 1.390625 -0.109375 C 1.023438 -0.242188 0.707031 -0.40625 0.4375 -0.59375 L 0.8125 -1.28125 C 1.03125 -1.113281 1.289062 -0.972656 1.59375 -0.859375 C 1.90625 -0.742188 2.191406 -0.6875 2.453125 -0.6875 C 2.796875 -0.6875 3.09375 -0.773438 3.34375 -0.953125 C 3.601562 -1.128906 3.734375 -1.394531 3.734375 -1.75 C 3.734375 -2.039062 3.625 -2.269531 3.40625 -2.4375 C 3.195312 -2.613281 2.898438 -2.78125 2.515625 -2.9375 C 2.148438 -3.070312 1.847656 -3.203125 1.609375 -3.328125 C 1.367188 -3.460938 1.164062 -3.640625 1 -3.859375 C 0.832031 -4.085938 0.75 -4.375 0.75 -4.71875 C 0.75 -5.21875 0.921875 -5.625 1.265625 -5.9375 C 1.617188 -6.25 2.078125 -6.410156 2.640625 -6.421875 C 3.328125 -6.421875 3.960938 -6.253906 4.546875 -5.921875 Z M 4.234375 -5.25 "/></g></g></g><g fill="#eeeeee" fill-opacity="1"><g transform="translate(220.236438, 213.682414)"><g><path d="M 1.78125 -6.390625 L 1.78125 0 L 0.921875 0 L 0.921875 -6.390625 Z M 1.78125 -6.390625 "/></g></g></g><g fill="#eeeeee" fill-opacity="1"><g transform="translate(223.614642, 213.682414)"><g><path d="M 5.9375 -0.546875 C 5.738281 -0.390625 5.429688 -0.242188 5.015625 -0.109375 C 4.597656 0.015625 4.210938 0.078125 3.859375 0.078125 C 3.191406 0.078125 2.601562 -0.0546875 2.09375 -0.328125 C 1.59375 -0.609375 1.203125 -0.988281 0.921875 -1.46875 C 0.648438 -1.945312 0.515625 -2.484375 0.515625 -3.078125 C 0.515625 -3.773438 0.660156 -4.378906 0.953125 -4.890625 C 1.253906 -5.398438 1.65625 -5.789062 2.15625 -6.0625 C 2.65625 -6.332031 3.203125 -6.46875 3.796875 -6.46875 C 4.160156 -6.46875 4.5 -6.421875 4.8125 -6.328125 C 5.132812 -6.242188 5.421875 -6.132812 5.671875 -6 L 5.390625 -5.203125 C 5.203125 -5.316406 4.960938 -5.410156 4.671875 -5.484375 C 4.390625 -5.566406 4.132812 -5.609375 3.90625 -5.609375 C 3.414062 -5.609375 2.976562 -5.503906 2.59375 -5.296875 C 2.21875 -5.097656 1.925781 -4.8125 1.71875 -4.4375 C 1.507812 -4.070312 1.40625 -3.640625 1.40625 -3.140625 C 1.40625 -2.679688 1.507812 -2.269531 1.71875 -1.90625 C 1.925781 -1.550781 2.21875 -1.273438 2.59375 -1.078125 C 2.96875 -0.878906 3.394531 -0.78125 3.875 -0.78125 C 4.101562 -0.78125 4.320312 -0.800781 4.53125 -0.84375 C 4.75 -0.894531 4.925781 -0.960938 5.0625 -1.046875 L 5.0625 -2.3125 L 3.796875 -2.3125 L 3.796875 -3.125 L 5.9375 -3.125 Z M 5.9375 -0.546875 "/></g></g></g><g fill="#eeeeee" fill-opacity="1"><g transform="translate(230.945567, 213.682414)"><g><path d="M 6.484375 -6.390625 L 6.484375 0.21875 L 6.46875 0.21875 L 1.765625 -4.546875 L 1.78125 0 L 0.921875 0 L 0.921875 -6.59375 L 0.96875 -6.59375 L 5.65625 -1.765625 L 5.640625 -6.390625 Z M 6.484375 -6.390625 "/></g></g></g><g fill="#eeeeee" fill-opacity="1"><g transform="translate(239.036961, 213.682414)"><g/></g></g><g fill="#eeeeee" fill-opacity="1"><g transform="translate(242.512429, 213.682414)"><g><path d="M 2.640625 -6.390625 C 3.328125 -6.390625 3.867188 -6.210938 4.265625 -5.859375 C 4.660156 -5.515625 4.859375 -5.03125 4.859375 -4.40625 C 4.859375 -4.050781 4.785156 -3.71875 4.640625 -3.40625 C 4.492188 -3.09375 4.257812 -2.835938 3.9375 -2.640625 C 3.613281 -2.453125 3.207031 -2.359375 2.71875 -2.359375 L 1.78125 -2.359375 L 1.78125 0 L 0.921875 0 L 0.921875 -6.390625 Z M 2.71875 -3.1875 C 3.03125 -3.1875 3.28125 -3.25 3.46875 -3.375 C 3.664062 -3.507812 3.800781 -3.664062 3.875 -3.84375 C 3.957031 -4.03125 4 -4.210938 4 -4.390625 C 4 -4.703125 3.898438 -4.976562 3.703125 -5.21875 C 3.503906 -5.457031 3.191406 -5.578125 2.765625 -5.578125 L 1.78125 -5.578125 L 1.78125 -3.1875 Z M 2.71875 -3.1875 "/></g></g></g><g fill="#eeeeee" fill-opacity="1"><g transform="translate(248.45503, 213.682414)"><g><path d="M 4.265625 -1.6875 L 1.8125 -1.6875 L 1.125 0 L 0.28125 0 L 3.078125 -6.65625 L 3.125 -6.65625 L 5.921875 0 L 4.9375 0 Z M 3.984375 -2.421875 L 3.0625 -4.765625 L 2.125 -2.421875 Z M 3.984375 -2.421875 "/></g></g></g><g fill="#eeeeee" fill-opacity="1"><g transform="translate(255.334968, 213.682414)"><g><path d="M 4.703125 -6.390625 L 4.703125 -5.578125 L 2.984375 -5.578125 L 2.984375 0 L 2.125 0 L 2.125 -5.578125 L 0.453125 -5.578125 L 0.453125 -6.390625 Z M 4.703125 -6.390625 "/></g></g></g><g fill="#eeeeee" fill-opacity="1"><g transform="translate(261.162614, 213.682414)"><g><path d="M 4.703125 -6.390625 L 4.703125 -5.578125 L 2.984375 -5.578125 L 2.984375 0 L 2.125 0 L 2.125 -5.578125 L 0.453125 -5.578125 L 0.453125 -6.390625 Z M 4.703125 -6.390625 "/></g></g></g><g fill="#eeeeee" fill-opacity="1"><g transform="translate(266.99026, 213.682414)"><g><path d="M 5.078125 -6.390625 L 5.078125 -5.578125 L 1.78125 -5.578125 L 1.78125 -3.625 L 4.71875 -3.625 L 4.71875 -2.796875 L 1.78125 -2.796875 L 1.78125 -0.828125 L 5.203125 -0.828125 L 5.203125 0 L 0.921875 0 L 0.921875 -6.390625 Z M 5.078125 -6.390625 "/></g></g></g><g fill="#eeeeee" fill-opacity="1"><g transform="translate(273.44574, 213.682414)"><g><path d="M 4.4375 0 L 2.9375 -2.359375 C 2.882812 -2.359375 2.8125 -2.359375 2.71875 -2.359375 L 1.78125 -2.359375 L 1.78125 0 L 0.921875 0 L 0.921875 -6.390625 L 2.625 -6.390625 C 3.0625 -6.390625 3.453125 -6.3125 3.796875 -6.15625 C 4.140625 -6.007812 4.40625 -5.785156 4.59375 -5.484375 C 4.789062 -5.191406 4.890625 -4.832031 4.890625 -4.40625 C 4.890625 -4.019531 4.800781 -3.660156 4.625 -3.328125 C 4.457031 -2.992188 4.191406 -2.742188 3.828125 -2.578125 L 5.4375 0 Z M 2.703125 -3.1875 C 3.160156 -3.1875 3.488281 -3.304688 3.6875 -3.546875 C 3.894531 -3.785156 4 -4.0625 4 -4.375 C 4 -4.5625 3.957031 -4.742188 3.875 -4.921875 C 3.789062 -5.109375 3.65625 -5.265625 3.46875 -5.390625 C 3.28125 -5.515625 3.046875 -5.578125 2.765625 -5.578125 L 1.78125 -5.578125 L 1.78125 -3.1875 Z M 2.703125 -3.1875 "/></g></g></g><g fill="#eeeeee" fill-opacity="1"><g transform="translate(279.963116, 213.682414)"><g><path d="M 6.484375 -6.390625 L 6.484375 0.21875 L 6.46875 0.21875 L 1.765625 -4.546875 L 1.78125 0 L 0.921875 0 L 0.921875 -6.59375 L 0.96875 -6.59375 L 5.65625 -1.765625 L 5.640625 -6.390625 Z M 6.484375 -6.390625 "/></g></g></g><g fill="#eeeeee" fill-opacity="1"><g transform="translate(288.054511, 213.682414)"><g><path d="M 4.234375 -5.25 C 3.992188 -5.375 3.742188 -5.472656 3.484375 -5.546875 C 3.234375 -5.628906 2.992188 -5.671875 2.765625 -5.671875 C 2.410156 -5.671875 2.128906 -5.59375 1.921875 -5.4375 C 1.722656 -5.28125 1.625 -5.066406 1.625 -4.796875 C 1.625 -4.523438 1.742188 -4.304688 1.984375 -4.140625 C 2.222656 -3.972656 2.5625 -3.804688 3 -3.640625 C 3.332031 -3.523438 3.613281 -3.394531 3.84375 -3.25 C 4.070312 -3.113281 4.257812 -2.921875 4.40625 -2.671875 C 4.5625 -2.429688 4.640625 -2.125 4.640625 -1.75 C 4.640625 -1.40625 4.550781 -1.09375 4.375 -0.8125 C 4.207031 -0.539062 3.960938 -0.320312 3.640625 -0.15625 C 3.328125 0 2.957031 0.078125 2.53125 0.078125 C 2.144531 0.078125 1.765625 0.015625 1.390625 -0.109375 C 1.023438 -0.242188 0.707031 -0.40625 0.4375 -0.59375 L 0.8125 -1.28125 C 1.03125 -1.113281 1.289062 -0.972656 1.59375 -0.859375 C 1.90625 -0.742188 2.191406 -0.6875 2.453125 -0.6875 C 2.796875 -0.6875 3.09375 -0.773438 3.34375 -0.953125 C 3.601562 -1.128906 3.734375 -1.394531 3.734375 -1.75 C 3.734375 -2.039062 3.625 -2.269531 3.40625 -2.4375 C 3.195312 -2.613281 2.898438 -2.78125 2.515625 -2.9375 C 2.148438 -3.070312 1.847656 -3.203125 1.609375 -3.328125 C 1.367188 -3.460938 1.164062 -3.640625 1 -3.859375 C 0.832031 -4.085938 0.75 -4.375 0.75 -4.71875 C 0.75 -5.21875 0.921875 -5.625 1.265625 -5.9375 C 1.617188 -6.25 2.078125 -6.410156 2.640625 -6.421875 C 3.328125 -6.421875 3.960938 -6.253906 4.546875 -5.921875 Z M 4.234375 -5.25 "/></g></g></g></svg>